<svg xmlns="http://www.w3.org/2000/svg" xmlns:xlink="http://www.w3.org/1999/xlink" width="671.913" height="307.298" viewBox="0 0 671.913 307.298">
  <defs>
    <clipPath id="clip-path">
      <path id="Path_360" data-name="Path 360" d="M1203.957,292.858l8.7,74.819-99.346,22.554-28.2-18.846,24.378-49.879Z" transform="translate(1.156 2.944)" fill="#f5f6fa"/>
    </clipPath>
  </defs>
  <g id="Group_19" data-name="Group 19" transform="translate(-611.203 -199.87)">
    <path id="Path_361" data-name="Path 361" d="M35.211,0V-36.784q0-6.655-1.573-9.317t-5.324-2.662a8.184,8.184,0,0,0-5.445,1.936,10.571,10.571,0,0,0-3.267,4.84V0H5.2V-60.5H16.7l1.694,7.018h.363a19.506,19.506,0,0,1,5.929-5.99,17.48,17.48,0,0,1,9.8-2.481,18,18,0,0,1,6.473,1.089,10.938,10.938,0,0,1,4.779,3.569,16.937,16.937,0,0,1,2.9,6.655,46.705,46.705,0,0,1,.968,10.346V0ZM57.354-30.25q0-16.093,6.292-23.958t17.545-7.865q12.1,0,18.029,7.986t5.929,23.837q0,16.214-6.292,24.018t-17.666,7.8Q57.354,1.573,57.354-30.25Zm14.883,0q0,9.075,2.057,14.036t6.9,4.961a7.272,7.272,0,0,0,6.837-4.3q2.238-4.3,2.239-14.7,0-9.317-2.057-14.157t-7.018-4.84q-4.235,0-6.594,4.3T72.237-30.25ZM113.619-84.7h42.35v14.036h-27.1v22.022h24.926v14.036H128.865V0H113.619Zm79.013,38.478a15.284,15.284,0,0,0-5.324-1.089,8.957,8.957,0,0,0-5.626,1.815,9.036,9.036,0,0,0-3.206,5.082V0h-14.4V-60.5h11.011l1.694,7.26h.484a14.019,14.019,0,0,1,4.538-6.232,11.037,11.037,0,0,1,6.837-2.238,14.134,14.134,0,0,1,5.687,1.21ZM199.65-56.87a32.783,32.783,0,0,1,9.075-3.509,52.137,52.137,0,0,1,12.342-1.331q10.285,0,14.339,5.324t4.053,15.125q0,5.687-.3,11.192T238.733-19.3q-.121,5.264.182,10.164A40.013,40.013,0,0,0,240.548.121H228.811l-2.3-7.381h-.484a16.289,16.289,0,0,1-5.445,5.808,15.8,15.8,0,0,1-8.833,2.3q-7.139,0-11.253-4.779T196.383-16.7q0-10.89,7.744-15.488t20.933-3.872q.605-7.018-.908-10.164t-6.473-3.146a35.074,35.074,0,0,0-7.5.847,27.748,27.748,0,0,0-6.9,2.42Zm17.3,45.375a8.3,8.3,0,0,0,5.324-1.634A10.767,10.767,0,0,0,225.3-16.7V-26.741a23.72,23.72,0,0,0-5.324-.121,14.582,14.582,0,0,0-4.477,1.089,7.224,7.224,0,0,0-3.086,2.481,7.088,7.088,0,0,0-1.149,4.174,9.106,9.106,0,0,0,1.512,5.687A5,5,0,0,0,216.953-11.495ZM277.453,0V-35.211q0-7.623-1.21-10.587a4.623,4.623,0,0,0-4.719-2.965,6.474,6.474,0,0,0-4.779,1.876A12.227,12.227,0,0,0,263.9-42.35V0H249.5V-60.5h11.132l1.815,7.26h.363a21.269,21.269,0,0,1,5.747-6.232q3.448-2.481,9.135-2.481a13.2,13.2,0,0,1,7.684,2.057q2.964,2.057,4.658,7.26a18.163,18.163,0,0,1,6.05-6.836,15.643,15.643,0,0,1,8.833-2.481,20.163,20.163,0,0,1,6.837,1.029,9.328,9.328,0,0,1,4.6,3.569,18.328,18.328,0,0,1,2.6,6.958A61.091,61.091,0,0,1,319.8-39.2V0H305.4V-36.784q0-6.171-1.089-9.075t-4.84-2.9a6.884,6.884,0,0,0-4.9,1.755,10.1,10.1,0,0,0-2.723,4.779V0Zm93.17-4.477A23.212,23.212,0,0,1,362.4-.121a34.953,34.953,0,0,1-10.89,1.694A24.818,24.818,0,0,1,340.676-.6,19.062,19.062,0,0,1,333.234-6.9a28.551,28.551,0,0,1-4.3-9.983,58.194,58.194,0,0,1-1.392-13.37q0-16.335,6.474-24.139t17.969-7.8a24.7,24.7,0,0,1,7.5,1.15,16.441,16.441,0,0,1,6.474,3.872,19.7,19.7,0,0,1,4.6,7.26,32,32,0,0,1,1.755,11.435q0,2.662-.3,5.687t-.908,6.534H341.7q.242,7.5,3.146,11.495t9.317,3.993a19.9,19.9,0,0,0,7.079-1.21,18.8,18.8,0,0,0,4.9-2.541ZM351.747-49.852a7.592,7.592,0,0,0-6.9,3.691q-2.3,3.69-2.662,10.345h16.7q.363-6.9-1.452-10.466A5.989,5.989,0,0,0,351.747-49.852ZM418.9-60.5l8.47,30.976,1.452,10.043h.484l1.21-10.164L436.2-60.5h13.068L434.39.6H423.016l-9.075-33.759-.968-7.744h-.726l-.847,7.986L402.688.6H390.951L375.463-60.5h15.609l6.534,30.371L398.7-19.36h.484l1.573-10.89,7.381-30.25Zm31.7,30.25q0-16.093,6.292-23.958t17.545-7.865q12.1,0,18.029,7.986T498.4-30.25q0,16.214-6.292,24.018t-17.666,7.8Q450.6,1.573,450.6-30.25Zm14.883,0q0,9.075,2.057,14.036t6.9,4.961a7.272,7.272,0,0,0,6.836-4.3q2.239-4.3,2.239-14.7,0-9.317-2.057-14.157t-7.018-4.84q-4.235,0-6.595,4.3T465.487-30.25Zm69.7-15.972a15.284,15.284,0,0,0-5.324-1.089,8.957,8.957,0,0,0-5.627,1.815,9.036,9.036,0,0,0-3.206,5.082V0h-14.4V-60.5h11.011l1.694,7.26h.484a14.019,14.019,0,0,1,4.537-6.232,11.037,11.037,0,0,1,6.836-2.238,14.134,14.134,0,0,1,5.687,1.21Zm24.684,21.175h-3.388V0h-14.4V-84.7h14.4v49.973l2.9-1.694L569.426-60.5h15.609L573.9-36.542l-5.2,4.114,5.687,4.114L586.729,0H570.515ZM590.843-7.865q0-4.477,2.359-6.776a8.548,8.548,0,0,1,6.232-2.3,8.838,8.838,0,0,1,6.534,2.3q2.3,2.3,2.3,6.776a9.3,9.3,0,0,1-2.359,6.776,8.624,8.624,0,0,1-6.474,2.42,8.264,8.264,0,0,1-6.292-2.42A9.446,9.446,0,0,1,590.843-7.865ZM616.495-60.5h14.4V2.541q0,11.011-3.811,16.819t-12.161,5.808a29.326,29.326,0,0,1-6.9-.847V11.495q5.2.484,6.836-2.964t1.633-10.225ZM614.8-77.561a8.23,8.23,0,0,1,2.3-5.99,8.706,8.706,0,0,1,6.534-2.359,9.715,9.715,0,0,1,6.776,2.3,7.769,7.769,0,0,1,2.541,6.05,7.4,7.4,0,0,1-2.541,5.929,10.056,10.056,0,0,1-6.776,2.178,8.981,8.981,0,0,1-6.534-2.238A7.822,7.822,0,0,1,614.8-77.561Zm47.916,61.468a6.07,6.07,0,0,0-1.633-4.3,18.779,18.779,0,0,0-4.174-3.267q-2.541-1.512-5.385-3.085a28.8,28.8,0,0,1-5.385-3.872,18.681,18.681,0,0,1-4.174-5.566,18.338,18.338,0,0,1-1.633-8.228q0-8.47,4.6-13.068t13.552-4.6a42.324,42.324,0,0,1,10.043,1.15,26.8,26.8,0,0,1,7.5,2.844l-3.388,11.132a46.844,46.844,0,0,0-5.566-1.875,23.894,23.894,0,0,0-6.413-.908q-5.929,0-5.929,4.961a4.973,4.973,0,0,0,1.634,3.812,22.767,22.767,0,0,0,4.174,2.965q2.541,1.452,5.384,3.025a27.418,27.418,0,0,1,5.385,3.933,19.006,19.006,0,0,1,4.174,5.747,19.136,19.136,0,0,1,1.633,8.349q0,8.349-5.082,13.431T656.909,1.573a39.536,39.536,0,0,1-9.741-1.21,24.912,24.912,0,0,1-7.683-3.146L643.478-14.4a31.69,31.69,0,0,0,5.869,2.541,22.225,22.225,0,0,0,6.957,1.089,7.832,7.832,0,0,0,4.6-1.271A4.6,4.6,0,0,0,662.717-16.093Z" transform="translate(606 482)" fill="#0d0d0d"/>
    <g id="Group_13" data-name="Group 13" transform="translate(2756.261 899.607) rotate(180)">
      <path id="Path_353" data-name="Path 353" d="M246.8,1115.36a58.471,58.471,0,0,0-2.6,6c-1.6-3.36-2.35-5.59-3.63-7.47-1.66-2.46-4.36-2.56-7-2.06a5,5,0,0,0-4,4.26c-.26,1.23-1,5.56-1,5.56s-2.11-2.57-2.66-3.44c-1.32-2.08-3.31-2.4-5.45-1.91-2,.45-3,2-3.53,3.82a12.49,12.49,0,0,0,4.6,13.86c7.25,5.21,21.57,5,28.8-.47a12.65,12.65,0,0,0,1.85-18.59,3.19,3.19,0,0,0-5.38.44Z" transform="translate(1634.08 -647.7)" fill="#fffe3b"/>
      <path id="Path_354" data-name="Path 354" d="M251.54,1109.46c-2.89-1.85-5.44-.44-7.84.64a13,13,0,0,1-1.6-.85c-6.59-4.86-9.22-5.59-14.83.55-2.32,2.55-2.57,1.31-4.15,1.41-6.61.46-10.35,4.32-10.73,10.86-.43,7.42,3.55,14.09,10.67,16.36a62.252,62.252,0,0,0,14.49,2.53,21.591,21.591,0,0,0,11.95-3.07c7-3.9,10.23-10.4,8.63-19.16A13.83,13.83,0,0,0,251.54,1109.46Zm-1.3,24.09c-7.23,5.44-21.55,5.68-28.8.47a12.49,12.49,0,0,1-4.6-13.86c.56-1.81,1.56-3.37,3.53-3.82,2.14-.49,4.13-.17,5.45,1.91.55.87,2.66,3.44,2.66,3.44s.78-4.33,1-5.56a5,5,0,0,1,4-4.26c2.68-.5,5.38-.4,7,2.06,1.28,1.88,2,4.11,3.63,7.47a58.482,58.482,0,0,1,2.6-6,3.19,3.19,0,0,1,5.29-.4,12.65,12.65,0,0,1-1.76,18.55Z" transform="translate(1634.08 -647.7)" fill="#590f43"/>
    </g>
    <g id="Group_14" data-name="Group 14" transform="matrix(-0.996, -0.087, 0.087, -0.996, 2785.122, 1046.832)">
      <path id="Path_352" data-name="Path 352" d="M189.65,1116.36a38.164,38.164,0,0,1-3.74,1.47,40.136,40.136,0,0,1-1-4,5.79,5.79,0,0,0-9.95-3.17c-1.19,1.31-2.3,2.69-3.73,4.37-1.17-1.08-2.05-1.94-3-2.76-2.44-2.15-4.83-1.9-6.39.74a8.13,8.13,0,0,0-1.07,6c1.52,7.75,6.38,12.67,13.67,14.39,7.62,1.79,15.09.8,20.56-5.85a11.18,11.18,0,0,0,2.17-4.08,10,10,0,0,0,.09-4.56C196.44,1115,193.32,1114.35,189.65,1116.36Z" transform="translate(1634.08 -647.7)" fill="#fffe3b"/>
      <path id="Path_355" data-name="Path 355" d="M190,1110.19a3.71,3.71,0,0,1-1.45-.29c-6.25-7.15-8.27-7.46-17.61-2.59a23.921,23.921,0,0,0-2.68-1.19c-4.69-1.47-7.47-.4-9.79,3.76a13.71,13.71,0,0,0-1.84,8.26,19.79,19.79,0,0,0,5.08,11.2c7,7.81,15.88,9.86,25.63,7.38A18.66,18.66,0,0,0,201,1123.9c1.51-4.68-.3-8.73-3.09-12.34C195.79,1108.83,192.84,1109.52,190,1110.19Zm7.25,13.27a11.181,11.181,0,0,1-2.17,4.08c-5.47,6.65-12.94,7.64-20.56,5.85-7.29-1.72-12.15-6.64-13.67-14.39a8.13,8.13,0,0,1,1.07-6c1.56-2.64,3.95-2.89,6.39-.74.93.82,1.81,1.68,3,2.76,1.43-1.68,2.54-3.06,3.73-4.37a5.79,5.79,0,0,1,9.95,3.17,40.134,40.134,0,0,0,1,4,38.133,38.133,0,0,0,3.74-1.47c3.67-2,6.79-1.38,7.67,2.54a10,10,0,0,1-.17,4.57Z" transform="translate(1634.08 -647.7)" fill="#590f43"/>
    </g>
    <g id="Group_16" data-name="Group 16" transform="translate(63 11)">
      <g id="Group_12" data-name="Group 12" transform="translate(2201.691 -1104.287) rotate(-3)">
        <path id="Path_87" data-name="Path 87" d="M286.362,992.42c-2.627,1.86-4.837,4.312-7.322,6.4-.742.625-1.91,1.368-2.7,1.2-1.3-.275-.951-1.551-.759-2.677a19.058,19.058,0,0,0,.325-5.137c-1.118-9.716-2.152-19.44-3.6-29.105-2.635-17.438-7.681-34.318-12.334-51.289-.617-2.252-1.1-4.6-2.835-6.271-1.743.133-3.252.384-4.762.359-8.039-.15-12.117-4.57-11-12.451.55-3.828,2.027-7.506,3.027-11.292.3-1.134.425-2.31.759-4.17a45.035,45.035,0,0,0-13.827,13.76c-1.418,2.127-2.36,4.729-5.362,5.838-1.193-.534-2.552-1.193-3.936-1.768-7.672-3.177-15.562-5.529-23.943-5.729-3.061-.075-3.061,0-4.612,4.3.951.717,1.976,1.484,2.986,2.26,5.838,4.553,7.255,10.641,5.654,17.513a26.613,26.613,0,0,1-3.094,7.13c-4.078,6.98-11.217,8.656-18.047,6.939a11.167,11.167,0,0,1-8.34-11.142,10.3,10.3,0,0,1,10.641-10.057,5.788,5.788,0,0,1,5.5,3.886,3.845,3.845,0,0,1-.125,2.5,1.437,1.437,0,0,1-2.5.575,5.279,5.279,0,0,1-.617-1.109c-1.61-2.76-2.544-3.077-5-1.96-2.652,1.193-4.17,3.152-4.111,6.071a7.581,7.581,0,0,0,4.428,7.389c4.111,1.993,10.2,1.084,13.268-2.343a23.176,23.176,0,0,0,4.12-6.555c3.386-8.34,0-14.936-8.682-17.588-2.4-.734-2.911-1.785-1.718-3.719.567-.926,1.351-1.718,1.876-2.669,2.093-3.753.951-7.331-2.869-9.24a9.783,9.783,0,0,0-7.631-.492c-3.7,1.218-7.331,2.669-10.917,4.211-4.787,2.06-9.432,4.453-14.252,6.438a46.645,46.645,0,0,1-20.374,3.194c-3.7-6.13-6.088-12.993-12.393-18.472.442,2,.65,3.027.884,4.045.984,4.228,1.976,8.456,1.826,12.86-.25,7.2-4.312,11.759-11.459,12.76-1.451.2-2.936.217-4.829.342-.634,7.189-3.4,13.535-6.3,19.848-9.332,20.332-15.553,41.465-16.287,64,0,.917.092,2.585-1.076,2.961-2.335.751-3.586-2.594-5.3-3.478a17.4,17.4,0,0,0-4.862-1.668c-2.5-.467-4.487.7-4.845,3.177a19.015,19.015,0,0,0,.2,7.039,15.528,15.528,0,0,0,4.645,7.722c1.067,1,3,1.826,2.994,3.469,0,1.176-1.293,1.543-1.893,2.135-4,3.986-4.5,6.121-1.793,10.841a24.793,24.793,0,0,0,4.837,6.088,59.722,59.722,0,0,0,8.34,6.221,110.972,110.972,0,0,0,30.506,12.893c14.5,3.886,29.314,6.23,44.05,8.94a187.193,187.193,0,0,0,49.929,2.61c23.5-1.985,44.9-9.632,64.874-21.791a60.311,60.311,0,0,0,13.418-11.342,15.209,15.209,0,0,0,4.111-7.289c.55-2.885-.751-4.754-3.594-5-1.493-.133-3.027,0-4.537,0a1.243,1.243,0,0,1-.876-.734,1.293,1.293,0,0,1,.125-1.151c1.134-1,2.385-1.868,3.544-2.844a18.614,18.614,0,0,0,5.746-8.556,8.048,8.048,0,0,0-.742-6.9C291.315,991.569,288.88,990.644,286.362,992.42Zm-120.024,13.535a16.4,16.4,0,0,1-1.768,5.546,30.674,30.674,0,0,1-13.685,13.51,21.619,21.619,0,0,1-8.807,1.835c-2.5.058-4.47,0-6.03,2.5-1.051,1.668-3.069.984-3.936-1.117-.325-.834-.325-1.726-.709-2.5-.592-1.168-2.769-1.576-3.92-.834-.534.359-.884.984-1.426,1.309-2.093,1.259-3.961.384-4.253-1.968a11.278,11.278,0,0,1,0-1.3c-.167-3.553-.167-3.561-3.928-2.235-1.076.384-2.293.642-2.944-.4-.517-.834-1.009-2.335-.609-2.952,1.81-2.752.951-5.2,0-7.956a22.817,22.817,0,0,1-.759-13.469,19.916,19.916,0,0,0,.3-2.785c-1.668-1.051-3.336-2.052-4.92-3.119-1.776-1.184-2.31-2.444-1.668-3.72.784-1.534,2.5-2,4.52-1.092,1.543.676,3.011,1.535,4.654,2.385.684-.834,1.234-1.46,1.768-2.11a3.173,3.173,0,0,0-.05-4.637,17.84,17.84,0,0,1-2.936-4.237,3.569,3.569,0,0,1,.625-2.877,1.922,1.922,0,0,1,2.911,0c1.785,1.559,3.386,3.336,5.171,5.087l5.454-3.152c-.509-1.284-.951-2.418-1.409-3.544-.167-.4-.4-.776-.542-1.184-.742-2.177-.284-3.811,1.243-4.5,1.326-.6,2.71-.142,3.87,1.5s2.06,3.336,3.161,5.07c3.336.158,6.738.242,10.141.517a17.645,17.645,0,0,1,9.941,4.47C164.6,985.331,167.672,994.847,166.338,1005.955Zm28.655,18.064a18.343,18.343,0,0,1-3.753,3.5c-3.236,2.5-3.736,6.23-1.184,9.407,1.109,1.376,3.628,2.21,2.168,4.67-.392.659-1.493.225-5.2-1.668-1.376.976-2.752,1.993-4.17,2.894-.242.15-.834-.075-1.159-.317a1.123,1.123,0,0,1-.417-1.093,15.483,15.483,0,0,1,2.068-3.2,7.13,7.13,0,0,0,1.768-4.737c.15-2.61-.409-4.653-3-5.838a7.9,7.9,0,0,1-2.5-2.077c-2.327-2.719-1.393-6.13,2.085-7.205a17.379,17.379,0,0,1,11.534.442A3.3,3.3,0,0,1,194.993,1024.019Zm63.189-34c-4.17,2.177-2.827,5.579-2.277,9.032a31.69,31.69,0,0,1,.225,9.048c-.3,2.268-.292,4.095.992,6.063a2.285,2.285,0,0,1-1.768,3.386c-1.059.125-2.16-.175-3.227-.1a2.077,2.077,0,0,0-2.193,2.5,11.049,11.049,0,0,1,.267,1.918,2.385,2.385,0,0,1-3.244,2.135,5.348,5.348,0,0,1-.617-.2c-4.462-1.751-4.462-1.751-6.371,2.777a2.343,2.343,0,0,1-3.728.951,2.759,2.759,0,0,1-.834-.992c-.792-2.068-2.41-2.185-4.253-1.985a23.81,23.81,0,0,1-17.221-4.529,21.247,21.247,0,0,1-5.771-6.038,31.324,31.324,0,0,1-3.594-22.634c2.2-10.333,10.575-17.28,21.208-18.072,1.943-.142,3.895-.042,6.08-.05a41.7,41.7,0,0,1,3.127-4.787,2.6,2.6,0,0,1,2.343-.325,3.461,3.461,0,0,1,1.568,1.86c.208.509-.133,1.243-.225,1.876-.434,2.986-.442,3,2.16,4.428a18.99,18.99,0,0,0,2.052.834c1.193-1.093,2.368-2.327,3.694-3.336a2.819,2.819,0,0,1,3.611-.083,2.91,2.91,0,0,1,.917,3.528c-.6,1.61-1.484,3.111-2.327,4.82a9.063,9.063,0,0,0,.575,1.668c1.009,1.843,2.243,3.136,4.687,2.444a7.926,7.926,0,0,1,3.586-.509,2.377,2.377,0,0,1,.559,4.37Z" transform="translate(-1557.2 361.835)" fill="#fffe3b"/>
        <path id="Path_88" data-name="Path 88" d="M297.009,1018.384a10.742,10.742,0,0,0-2.46-5c-15.562,19.415-40.781,32.216-66.008,28.7-14.352-2.5-27.012-8.665-46-6.538-32.524,3.644-57.81,13.293-89.884,8.231-7.948-1.326-14.344-7.331-22.033-10.266-4.245,6.788-3.778,11.792,1.551,18.347a24.807,24.807,0,0,0,3.611,3.753,86.037,86.037,0,0,0,7.9,5.755A109.75,109.75,0,0,0,115.289,1075c9.9,2.5,19.9,4.612,29.931,6.447,7.506,1.376,15.161,1.585,22.592,3.119,9.682,2.01,19.423,2.185,29.189,2.127a138.807,138.807,0,0,0,30.406-3.261c17.038-3.92,33.525-9.174,48.37-18.772a72.7,72.7,0,0,0,16.212-14.019,28.517,28.517,0,0,0,4.17-7.306,7.081,7.081,0,0,0,.5-1.81h0c0-.25.05-.492.058-.734v-.15a6.419,6.419,0,0,0,0-.692.642.642,0,0,1,0-.125,6.4,6.4,0,0,0-.325-1.309.162.162,0,0,0-.042-.134c-.042-.042-.133-.3-.208-.45s-.133-.283-.217-.425-.142-.242-.225-.367a5.315,5.315,0,0,0-.35-.5l-.217-.284a9.955,9.955,0,0,0-.7-.759c-.734-.709-1.551-1.326-2.393-2.035,1.293-2.077,2.5-3.861,3.544-5.746a13.293,13.293,0,0,0,1.426-9.432Z" transform="translate(-1557.03 339.216)" fill="#fff" fill-rule="evenodd"/>
        <path id="Path_89" data-name="Path 89" d="M319,1011.378c-.734-.709-1.551-1.326-2.393-2.035,1.293-2.077,2.5-3.861,3.544-5.746a13.293,13.293,0,0,0,1.509-9.449c-1.5-6.813-7.347-9.49-13.41-6.1-1.459.834-2.861,1.768-4.7,2.919-.234-1.793-.417-3.036-.567-4.278-1.092-8.84-2.018-17.7-3.336-26.512-2.1-14.177-5.754-28.088-9.174-42.007-2.027-8.2-4.578-16.246-5.4-24.777a55.8,55.8,0,0,0-7.214-22.851,25.3,25.3,0,0,0-2.368-2.927c-4.07,1.51-6.83,4.362-9.824,6.813s-5.838,5.212-8.682,7.889-3.92,6.722-7.322,8.965c-9.707-3.936-19.465-6.672-29.564-5.888-.55-.784-.834-1.109-1.026-1.476a22.647,22.647,0,0,0-2.819-4.278c5.471,44.433,1.409,91.377,26.8,130.615,17.155,25.736,52.331,21.2,78.217,7.047a6.747,6.747,0,0,0-2.268-5.929Z" transform="translate(-1581.686 363.418)" fill="#fffe3b" fill-rule="evenodd"/>
        <path id="Path_90" data-name="Path 90" d="M134.561,950.793c11.817-1.668,21.95-8.44,26.17-19.415,5.688-15.17,3.336-30.857-1.409-45.868-1.484.676-2.969,1.343-4.478,1.96a37.379,37.379,0,0,1-14.653,3.286c-.776-1.418-1.518-2.727-2.21-4.053a78.861,78.861,0,0,0-14.8-19.756c-2.735-2.7-3.936-2.569-5.838.959a52.542,52.542,0,0,0-5.562,14.569c-1.668,8.34-3.169,16.679-4.929,24.927a62.627,62.627,0,0,1-2.952,9.958c-2.393,6.054-5.279,11.926-7.614,18.005a152.572,152.572,0,0,0-4.862,14.711C105.172,953.629,120.792,952.828,134.561,950.793Z" transform="translate(-1560.958 363.841)" fill="#fffe3b" fill-rule="evenodd"/>
        <path id="Path_91" data-name="Path 91" d="M148.453,1029.787a9.232,9.232,0,0,0,5.237,4.545c1.96.692,3.995-.942,3.761-3.753a7.873,7.873,0,0,0-4.086-5.5,3.536,3.536,0,0,0-4.17.567,3.444,3.444,0,0,0-.742,4.136Z" transform="translate(-1570.363 337.345)" fill="#fff"/>
        <path id="Path_92" data-name="Path 92" d="M129.514,1012.41c-.208.067-.525.067-.609.208-6.9,11.234-2.735,25.286,9.1,30.715a33.421,33.421,0,0,0,11.967,2.761c8.148.525,14.052-3.161,18.23-9.833C147.036,1046.26,128.756,1029.515,129.514,1012.41Z" transform="translate(-1566.628 339.377)" fill="#fff"/>
        <path id="Path_93" data-name="Path 93" d="M140.67,1017.307a3.178,3.178,0,0,0,4.3-1.668,22.436,22.436,0,0,0,1.526-5.463,2.577,2.577,0,0,0-1.993-2.919,2.936,2.936,0,0,0-3.461.976,28.682,28.682,0,0,0-1.968,4.128C138.811,1015.413,139.4,1016.74,140.67,1017.307Z" transform="translate(-1568.86 340.268)" fill="#fff"/>
        <path id="Path_94" data-name="Path 94" d="M164.03,1021.441c4.612,0,6.73-3.052,4.962-7.256a16.321,16.321,0,0,0-9.249-9.357,3.761,3.761,0,0,0-4.837,2.052C152.062,1012.793,157.508,1021.491,164.03,1021.441Z" transform="translate(-1571.37 340.679)" fill="#fff"/>
        <path id="Path_95" data-name="Path 95" d="M203.715,1049.5c-.734.283.175,2.26.692,2.86,1.968,2.3,5,4.537,7.414,2.3.759-.709,3.444-3.336,3.227-4.587C214.815,1048.719,206.584,1048.352,203.715,1049.5Z" transform="translate(-1579.557 333.332)" fill="#ff7cc7"/>
        <path id="Path_96" data-name="Path 96" d="M284.974,900.966a10.719,10.719,0,0,0,2.577.3c3.277-.067,4.82-1.668,4.445-4.92a80.059,80.059,0,0,0-6.021-22.575c-.909,1.835-1.668,3.1-2.185,4.445a51.837,51.837,0,0,0-3.945,15.737C279.62,898.08,281.055,900.065,284.974,900.966Z" transform="translate(-1592.24 362.396)" fill="#ff7cc7"/>
        <path id="Path_97" data-name="Path 97" d="M124.911,900.147a7.038,7.038,0,0,0,3.077-5.446c.592-7.114-.909-13.819-3.736-21.141-5,9.107-5.4,18.472-7.322,27.813C120.441,902.724,122.718,901.689,124.911,900.147Z" transform="translate(-1565.193 362.431)" fill="#ff7cc7"/>
        <path id="Path_98" data-name="Path 98" d="M279.124,1022.37c-1,1.9-1.968,3.82-2.994,5.7a20.706,20.706,0,0,1-13.594,10.316c-7.773,2.068-14.561-.375-21.133-4.086-1.593-.909-3.019-2.118-5.1-3.6a16.321,16.321,0,0,0,5.988,9.732c10.116,8.031,24.869,6.847,34.359-2.852a12.368,12.368,0,0,0,3.769-8.765c0-2.152-.1-4.3-.167-6.447Z" transform="translate(-1585.013 337.723)" fill="#fff"/>
        <path id="Path_99" data-name="Path 99" d="M248.372,1019.431a31.332,31.332,0,0,0,1.418-8.656,2.9,2.9,0,0,0-4.5-1.826c-3.127,2.218-3.995,7.931-1.668,10.942a2.744,2.744,0,0,0,4.745-.459Z" transform="translate(-1586.01 340.037)" fill="#fff"/>
        <path id="Path_100" data-name="Path 100" d="M262.914,1032.734c.834-.417,3.127-2.5,1.026-4.712a7.656,7.656,0,0,0-6.271-2.635,4.461,4.461,0,0,0-2.7,1.359,2.9,2.9,0,0,0,0,3.578C256.56,1032.742,260.362,1033.96,262.914,1032.734Z" transform="translate(-1588.01 337.225)" fill="#fff"/>
        <path id="Path_101" data-name="Path 101" d="M266.887,1018.853c4.17.751,7.4-2.677,6-6.713a14.069,14.069,0,0,0-9.3-9.315c-.409-.125-.834-.183-1.268-.275-2.911-.15-5.771,3.094-5.346,6.079C257.572,1012.932,262.618,1018.094,266.887,1018.853Z" transform="translate(-1588.438 341.015)" fill="#fff"/>
        <path id="Path_102" data-name="Path 102" d="M304.338,1047.073a7.414,7.414,0,0,1,4.07,3.419c.876,1.351-.967,1.718-1.56,1.443a5.179,5.179,0,0,1-3.2-3.57C303.554,1047.974,303.212,1046.648,304.338,1047.073Z" transform="translate(-1596.175 333.635)" fill="#ff7cc7" fill-rule="evenodd"/>
        <path id="Path_103" data-name="Path 103" d="M300.434,1054.386a3.97,3.97,0,0,1,.934,2.61c-.058.917-1.818.492-2.936-.926-.492-.625-2.152-2.4-1.209-3.119S299.867,1053.736,300.434,1054.386Z" transform="translate(-1595.082 332.677)" fill="#ff7cc7" fill-rule="evenodd"/>
        <path id="Path_104" data-name="Path 104" d="M120.174,1056.31c2.335.125.45,3.136-.417,4.3-.292.4-1.168.917-1.668.609a2.176,2.176,0,0,1-.367-2.185C118.289,1058.011,118.9,1056.243,120.174,1056.31Z" transform="translate(-1565.301 332.088)" fill="#ff7cc7" fill-rule="evenodd"/>
        <path id="Path_105" data-name="Path 105" d="M112.8,1051.836c1.1,1.2-1.1,3.636-2.5,4.629a1.2,1.2,0,0,1-1.118-.117,1.217,1.217,0,0,1-.342-1.042C109.413,1053.6,111.865,1050.8,112.8,1051.836Z" transform="translate(-1563.847 332.868)" fill="#ff7cc7" fill-rule="evenodd"/>
        <path id="Path_106" data-name="Path 106" d="M288.708,1058.8c1.126-.459,2.977,1.251,2.81,2.594a1.167,1.167,0,0,1-.834.734c-1.593.117-2.143-1.026-2.435-2.293A1.159,1.159,0,0,1,288.708,1058.8Z" transform="translate(-1593.638 331.686)" fill="#ff7cc7" fill-rule="evenodd"/>
        <path id="Path_107" data-name="Path 107" d="M128.767,1061.365c1.443.392.2,4.42-1.276,4.537a.775.775,0,0,1-.509-.192C125.873,1064.709,127.324,1060.981,128.767,1061.365Z" transform="translate(-1566.797 331.253)" fill="#ff7cc7" fill-rule="evenodd"/>
        <path id="Path_110" data-name="Path 110" d="M296.374,993.759c-1.5-6.814-7.347-9.491-13.41-6.1-1.459.834-2.86,1.768-4.7,2.919-.234-1.793-.417-3.036-.567-4.278-1.092-8.84-2.018-17.7-3.336-26.511-2.1-14.177-5.754-28.088-9.174-42.007-2.026-8.2-4.578-16.245-5.4-24.777a55.8,55.8,0,0,0-7.214-22.851,25.29,25.29,0,0,0-2.368-2.927c-4.07,1.51-6.83,4.362-9.824,6.813s-5.838,5.212-8.682,7.889-3.92,6.722-7.322,8.965c-9.707-3.936-19.465-6.672-29.564-5.888-.55-.784-.834-1.109-1.026-1.476-3.77-7.2-8.34-9.574-15.912-7.581a93.913,93.913,0,0,0-12.768,4.787c-5,2.127-9.807,4.679-14.836,6.73a37.379,37.379,0,0,1-14.653,3.286c-.776-1.418-1.518-2.727-2.21-4.053a78.861,78.861,0,0,0-14.8-19.756c-2.735-2.7-3.936-2.569-5.838.959a52.542,52.542,0,0,0-5.563,14.569c-1.668,8.34-3.169,16.679-4.929,24.927a62.628,62.628,0,0,1-2.952,9.958c-2.393,6.054-5.279,11.926-7.614,18.005C85.674,951.11,82,967.356,81.9,984.268a6.67,6.67,0,0,1-.484,1.71,61.137,61.137,0,0,0-7.381-2.91c-4.053-1.034-7.331.759-9,4.578a13.127,13.127,0,0,0-.726,8.29,25.2,25.2,0,0,0,6.4,11.817c-5,7.364-4.779,12.509.834,19.465a24.817,24.817,0,0,0,3.611,3.753,85.992,85.992,0,0,0,7.9,5.754,109.744,109.744,0,0,0,31.607,13.635c9.9,2.5,19.9,4.612,29.931,6.446,7.506,1.376,15.161,1.585,22.592,3.119,9.682,2.01,19.423,2.185,29.189,2.127a138.807,138.807,0,0,0,30.406-3.261c17.038-3.92,33.525-9.174,48.37-18.772A72.7,72.7,0,0,0,291.354,1026a28.519,28.519,0,0,0,4.17-7.306,6.619,6.619,0,0,0-1.776-7.739c-.734-.709-1.551-1.326-2.393-2.035,1.293-2.077,2.5-3.861,3.544-5.746A13.293,13.293,0,0,0,296.374,993.759ZM250.156,872.326a80.061,80.061,0,0,1,6.021,22.576c.375,3.277-1.168,4.854-4.445,4.92a10.728,10.728,0,0,1-2.577-.3c-3.945-.9-5.379-2.886-5.129-7.014a51.836,51.836,0,0,1,3.945-15.737C248.505,875.428,249.247,874.186,250.156,872.326Zm-134.7-.175c2.827,7.322,4.328,14.027,3.736,21.141a7.039,7.039,0,0,1-3.077,5.446c-2.193,1.543-4.47,2.577-7.981,1.226,1.926-9.34,2.3-18.706,7.322-27.813ZM292.847,999.18a18.614,18.614,0,0,1-5.746,8.556c-1.159.976-2.41,1.843-3.544,2.844a1.293,1.293,0,0,0-.125,1.151,1.243,1.243,0,0,0,.876.734c1.509.075,3.044-.092,4.537,0,2.844.267,4.17,2.16,3.594,5a15.617,15.617,0,0,1-4.111,7.289,60.316,60.316,0,0,1-13.443,11.284c-19.973,12.159-41.373,19.807-64.874,21.791a187.183,187.183,0,0,1-49.929-2.61c-14.736-2.71-29.547-5.054-44.05-8.94a110.973,110.973,0,0,1-30.506-12.81,59.732,59.732,0,0,1-8.34-6.221,24.793,24.793,0,0,1-4.837-6.088c-2.7-4.745-2.21-6.88,1.793-10.841.6-.592,1.876-.959,1.893-2.135,0-1.668-1.926-2.5-2.994-3.469a15.529,15.529,0,0,1-4.645-7.723,19.014,19.014,0,0,1-.2-7.039c.359-2.5,2.31-3.644,4.845-3.177a17.409,17.409,0,0,1,4.862,1.668c1.718.884,2.969,4.228,5.3,3.478,1.168-.375,1.042-2.043,1.076-2.961.734-22.517,6.955-43.666,16.287-64,2.894-6.313,5.663-12.659,6.3-19.848,1.893-.125,3.336-.142,4.829-.342,7.147-1,11.208-5.562,11.459-12.76.15-4.4-.834-8.631-1.826-12.86-.234-1.017-.442-2.043-.884-4.045,6.3,5.479,8.69,12.343,12.393,18.472a46.646,46.646,0,0,0,20.39-3.2c4.82-1.985,9.465-4.378,14.252-6.438,3.586-1.543,7.214-2.994,10.917-4.211a9.783,9.783,0,0,1,7.631.492c3.82,1.91,4.962,5.487,2.869,9.24-.525.951-1.309,1.743-1.876,2.669-1.193,1.935-.684,2.985,1.718,3.719,8.69,2.652,12.026,9.282,8.69,17.588a23.175,23.175,0,0,1-4.12,6.555c-3.069,3.427-9.174,4.337-13.268,2.343a7.649,7.649,0,0,1-4.428-7.389,6.258,6.258,0,0,1,4.111-6.071c2.5-1.118,3.419-.834,5,1.96a5.279,5.279,0,0,0,.617,1.109,1.428,1.428,0,0,0,2.5-.575,3.845,3.845,0,0,0,.125-2.5,5.788,5.788,0,0,0-5.5-3.886,10.3,10.3,0,0,0-10.641,10.058,11.167,11.167,0,0,0,8.34,11.142c6.83,1.718,13.969,0,18.047-6.938a26.61,26.61,0,0,0,3.094-7.13c1.6-6.872.2-12.96-5.654-17.513-1.009-.776-2.035-1.543-2.986-2.26,1.551-4.32,1.551-4.378,4.612-4.3,8.34.2,16.271,2.552,23.943,5.729,1.384.575,2.744,1.234,3.936,1.768,3-1.084,3.945-3.686,5.362-5.838a45.032,45.032,0,0,1,13.827-13.76c-.334,1.851-.459,3.027-.759,4.17-1,3.77-2.5,7.506-3.027,11.292-1.118,7.881,2.961,12.3,11,12.451,1.509,0,3.019-.225,4.762-.359,1.735,1.668,2.218,4.02,2.836,6.271,4.653,16.971,9.7,33.851,12.334,51.289,1.451,9.666,2.5,19.39,3.6,29.105a19.057,19.057,0,0,1-.325,5.137c-.192,1.126-.542,2.4.759,2.677.792.167,1.96-.575,2.7-1.2,2.5-2.085,4.7-4.537,7.322-6.4s4.954-.834,6.547,1.868a8.047,8.047,0,0,1,.742,6.938Z" transform="translate(-1556.396 363.841)" fill="#590f43"/>
        <path id="Path_113" data-name="Path 113" d="M163.417,995.74a17.645,17.645,0,0,0-9.941-4.47c-3.4-.275-6.813-.359-10.141-.517-1.1-1.776-2.052-3.478-3.161-5.07s-2.5-2.1-3.87-1.5c-1.526.692-1.985,2.327-1.243,4.5.142.409.375.784.542,1.184.459,1.126.9,2.26,1.409,3.544l-5.454,3.152c-1.785-1.776-3.386-3.528-5.171-5.087a1.985,1.985,0,0,0-2.911,0,3.569,3.569,0,0,0-.625,2.877,17.835,17.835,0,0,0,2.936,4.237,3.173,3.173,0,0,1,.05,4.637c-.534.651-1.084,1.293-1.768,2.11-1.668-.834-3.111-1.668-4.653-2.385-2.052-.909-3.736-.442-4.52,1.092-.65,1.276-.117,2.5,1.668,3.719,1.61,1.068,3.252,2.068,4.92,3.119a19.918,19.918,0,0,1-.3,2.786,22.817,22.817,0,0,0,.759,13.469c.959,2.76,1.818,5.2,0,7.956-.4.617.092,2.127.609,2.952.65,1.042,1.868.784,2.944.4,3.761-1.326,3.761-1.318,3.928,2.235a9.672,9.672,0,0,0,0,1.3c.292,2.352,2.16,3.227,4.253,1.968.542-.325.892-.951,1.426-1.309,1.151-.776,3.336-.367,3.92.834.384.759.384,1.668.709,2.5.834,2.1,2.886,2.811,3.936,1.117,1.559-2.5,3.494-2.452,6.03-2.5a21.617,21.617,0,0,0,8.807-1.835,30.672,30.672,0,0,0,13.685-13.51,16.4,16.4,0,0,0,1.768-5.546C175.284,1012.578,172.215,1003.062,163.417,995.74Zm-15.07,7.714a3.761,3.761,0,0,1,4.837-2.052,16.32,16.32,0,0,1,9.29,9.357c1.768,4.17-.35,7.222-4.962,7.255C150.949,1018.065,145.5,1009.367,148.347,1003.454Zm-4.745,15.437a3.536,3.536,0,0,1,4.17-.567,7.873,7.873,0,0,1,4.086,5.5c.234,2.81-1.8,4.445-3.761,3.753a9.232,9.232,0,0,1-5.237-4.545,3.444,3.444,0,0,1,.742-4.136Zm-8.556-10.366a28.692,28.692,0,0,1,1.968-4.128,2.936,2.936,0,0,1,3.461-.976,2.577,2.577,0,0,1,1.993,2.919,22.436,22.436,0,0,1-1.526,5.463,3.178,3.178,0,0,1-4.3,1.668C135.354,1012.9,134.762,1011.577,135.045,1008.525Zm13.11,32.841a33.424,33.424,0,0,1-11.967-2.76c-11.834-5.429-16-19.481-9.1-30.715.083-.142.4-.142.609-.208-.759,17.1,17.513,33.884,38.687,23.851-4.178,6.663-10.083,10.358-18.23,9.833Z" transform="translate(-1564.811 344.104)" fill="#590f43"/>
        <path id="Path_114" data-name="Path 114" d="M284.55,1003.741a7.925,7.925,0,0,0-3.586.509c-2.444.692-3.678-.6-4.687-2.443a9.064,9.064,0,0,1-.575-1.668c.834-1.71,1.726-3.211,2.327-4.82a2.911,2.911,0,0,0-.917-3.528,2.819,2.819,0,0,0-3.611.083c-1.326,1.034-2.5,2.268-3.694,3.336-.834-.359-1.493-.542-2.052-.834-2.6-1.426-2.594-1.443-2.16-4.428.092-.634.434-1.368.225-1.876a3.461,3.461,0,0,0-1.568-1.86,2.6,2.6,0,0,0-2.343.325,41.7,41.7,0,0,0-3.127,4.787c-2.185,0-4.17-.092-6.08.05-10.633.792-19.006,7.739-21.208,18.072a31.324,31.324,0,0,0,3.594,22.634,21.25,21.25,0,0,0,5.771,6.038,23.81,23.81,0,0,0,17.221,4.529c1.843-.2,3.461-.083,4.253,1.985a2.759,2.759,0,0,0,.834.992,2.343,2.343,0,0,0,3.728-.951c1.91-4.528,1.91-4.528,6.371-2.777a5.337,5.337,0,0,0,.617.2,2.385,2.385,0,0,0,3.244-2.135,11.042,11.042,0,0,0-.267-1.918,2.047,2.047,0,0,1,2.193-2.5c1.067-.075,2.168.225,3.227.1a2.285,2.285,0,0,0,1.768-3.386c-1.284-1.968-1.293-3.795-.992-6.063a31.689,31.689,0,0,0-.225-9.048c-.55-3.453-1.91-6.855,2.277-9.032a2.377,2.377,0,0,0-.559-4.37Zm-26.578-3.928c.425.092.834.15,1.268.275a14.069,14.069,0,0,1,9.3,9.315c1.4,4.036-1.81,7.506-6,6.714s-9.315-5.921-9.9-10.224C252.2,1002.907,255.061,999.663,257.972,999.813Zm-6.922,20.407a4.462,4.462,0,0,1,2.7-1.359,7.656,7.656,0,0,1,6.271,2.635c2.1,2.21-.175,4.295-1.026,4.712-2.552,1.226-6.388,0-7.923-2.41a2.941,2.941,0,0,1-.025-3.594Zm-7.672-15.011a2.9,2.9,0,0,1,4.5,1.826,30.078,30.078,0,0,1-1.418,8.656,2.744,2.744,0,0,1-4.745.459c-2.327-2.986-1.459-8.7,1.668-10.917Zm32.349,26.32c-9.49,9.7-24.243,10.883-34.359,2.852a16.321,16.321,0,0,1-5.988-9.732c2.085,1.484,3.511,2.694,5.1,3.6,6.572,3.711,13.343,6.155,21.133,4.087a20.707,20.707,0,0,0,13.594-10.316c1.026-1.885,1.993-3.8,2.994-5.7h1.126c.067,2.152.192,4.3.167,6.447a12.368,12.368,0,0,1-3.77,8.79Z" transform="translate(-1584.093 343.751)" fill="#590f43"/>
        <path id="Union_1" data-name="Union 1" d="M-2268.99,1058.806c-1.418-.472-6.928-3.069-6.8-3.3.318-.658,5.676,1.241,9.527,1.518,3.433.248,5.617-1.072,5.968-1.49a7.132,7.132,0,0,0,1.768-4.738c.15-2.577-.409-4.62-3-5.837a7.91,7.91,0,0,1-2.5-2.076c-2.327-2.719-1.392-6.13,2.085-7.205a17.377,17.377,0,0,1,11.492.483c2.335.834,3.219,3.235,1.81,5.179a18.356,18.356,0,0,1-3.753,3.5c-2.477,1.9-3.351,4.543-2.48,7.1a11.553,11.553,0,0,0,1.907,2.927c.188.166.385.329.579.493a11.661,11.661,0,0,0,4.368.68c.363,0,.73-.01,1.062-.029a7.161,7.161,0,0,0,4.178-1.29,2.407,2.407,0,0,1,1.143-.507c.068.482-2.561,4.489-4.025,4.81a35.838,35.838,0,0,1-5.863.531,6.812,6.812,0,0,1-2.274-.253,10.91,10.91,0,0,1-2.829-2.044,17.277,17.277,0,0,1-4.3,2.673,3.449,3.449,0,0,1-.932.1A32.534,32.534,0,0,1-2268.99,1058.806Zm6.69-20.429c-.734.283.175,2.26.692,2.86,1.968,2.3,5.028,4.537,7.413,2.3l-.016-.017c.759-.692,3.444-3.361,3.244-4.57-.138-.8-3.08-1.262-6.052-1.262A16.233,16.233,0,0,0-2262.3,1038.377Z" transform="translate(886.476 344.475)" fill="#590f43"/>
        <path id="Path_116" data-name="Path 116" d="M167.248,946.55c-2.452,0-3.461,2.969-5.154,4.17-.309.225-1.168-.117-1.668-.4a1.251,1.251,0,0,1-.284-1.126,10.158,10.158,0,0,1,5.654-6.622,4.5,4.5,0,0,1,3.619.083,17.929,17.929,0,0,1,4.095,3.895,2.052,2.052,0,0,1,0,2.919c-.984.992-1.943.55-2.827-.142C169.534,948.469,168.8,946.55,167.248,946.55Z" transform="translate(-1572.362 351.029)" fill="#590f43" fill-rule="evenodd"/>
        <path id="Path_117" data-name="Path 117" d="M243.946,949.477c-.675,0-1.168.609-1.626,1.017-.834.7-1.459,1.543-2.268,2.227a1.243,1.243,0,0,1-1.151,0,1.443,1.443,0,0,1-.55-1.076,6.513,6.513,0,0,1,4.061-6,3.537,3.537,0,0,1,2.5-.142,10.908,10.908,0,0,1,6.555,7.322,1.218,1.218,0,0,1-.517,1.068c-.525.192-1.384.367-1.668.092-1.268-1.134-2.352-2.5-3.586-3.653A2.5,2.5,0,0,0,243.946,949.477Z" transform="translate(-1585.354 350.512)" fill="#590f43" fill-rule="evenodd"/>
        <path id="Path_119" data-name="Path 119" d="M150.61,987.9c1.91-1.209,2.694-2,3.611-2.244,3.077-.834,5.946,0,8.657,1.518a25.586,25.586,0,0,1,2.443,2.594,25.851,25.851,0,0,1-3.336-.834c-1.668-.259-3.336-.834-5-1.059a60.223,60.223,0,0,0-6.371.025Z" transform="translate(-1570.785 343.874)" fill="#590f43" fill-rule="evenodd"/>
        <path id="Path_120" data-name="Path 120" d="M260.049,987.831c-.2.342-4.12.625-6.2.834a32.087,32.087,0,0,0-6.413,1.084c-.083-.292,1.5-2.01,1.751-2.193,2.418-1.668,5.07-1.768,7.889-1.251A8.726,8.726,0,0,1,260.049,987.831Z" transform="translate(-1586.862 343.757)" fill="#590f43" fill-rule="evenodd"/>
      </g>
      <g id="Group_15" data-name="Group 15" transform="translate(1439.217 -430.115)">
        <path id="Path_71" data-name="Path 71" d="M1033.878,445.811c.433,1.588-2.6.427-3.214.406-2.159-.048-3.7.725-6.1.636,0,.976.754,4.529.816,5.526a9.231,9.231,0,0,0,9.99,8.443,6.072,6.072,0,0,0,5.555-3.513c1.451-3.266,1.768-7.973.331-11.253Z" transform="translate(-1564.272 351.74)" fill="#ff554d"/>
        <path id="Path_79" data-name="Path 79" d="M1038.746,436.359c1.016-1.782-5.351-.731-8.766.11a25.615,25.615,0,0,1-3.486.394c-4.812.529-12.472.114-11.349,1.3.88.887,2.343.543,2.858,1.568s.261,2.6.351,3.919A12.13,12.13,0,0,0,1031.417,455c3.857-.268,6.93-2.008,8.25-5.837a12.407,12.407,0,0,0-.935-11,1.5,1.5,0,0,1,.014-1.8Zm-2.173,12.376a6.072,6.072,0,0,1-5.555,3.513,9.232,9.232,0,0,1-9.99-8.443c-.062-1,.034-3.933,0-4.909a7.463,7.463,0,0,1,6.392-.307c1.593.96,1.975,1.012,2.854,3.317,1.082,5.473-.056,6.281.566,6.169.976-.124,1.191-1.84.907-4.162a15.2,15.2,0,0,0-1.621-5.323,8.032,8.032,0,0,1,3.744-.869,3.453,3.453,0,0,1,2.511,1.176,11.651,11.651,0,0,1,.165,9.852Z" transform="translate(-1559.92 360.3)" fill="#590f43"/>
      </g>
    </g>
    <path id="Path_358" data-name="Path 358" d="M.313-.39A10.218,10.218,0,0,0,.041,2.733,7.8,7.8,0,0,0,1.052,5.906" transform="matrix(0.978, -0.208, 0.208, 0.978, 901.938, 372.671)" fill="none" stroke="#fff" stroke-linecap="round" stroke-width="2"/>
    <g id="Group_17" data-name="Group 17" transform="matrix(0.999, 0.052, -0.052, 0.999, 1.051, -41.467)">
      <g id="Mask_Group_1" data-name="Mask Group 1" clip-path="url(#clip-path)">
        <path id="Path_359" data-name="Path 359" d="M-195.038,189.05a7.989,7.989,0,0,1-1.282-.1,8,8,0,0,1-6.626-9.17c5.057-31.388,27.183-60.518,44.676-68.033,9.55-4.1,16.022-1.265,19.03.79,9.612,6.569,12.11,16.028,13.934,22.934.963,3.647,1.873,7.092,3.257,7.751a4.9,4.9,0,0,0,4.449.269c2.339-1.036,5.567-4.564,7.609-11.359a8,8,0,0,1,9.965-5.358,8,8,0,0,1,5.358,9.965c-3.152,10.484-8.994,18.077-16.451,21.38a20.765,20.765,0,0,1-17.813-.453c-8.077-3.849-10.165-11.756-11.843-18.109-1.5-5.69-2.8-10.6-7.493-13.811-.258-.176-1.5-.237-3.687.7-11.473,4.929-30.888,29.147-35.195,55.876A8,8,0,0,1-195.038,189.05Z" transform="translate(1320.582 234.449) rotate(9)" fill="#fffe3b" stroke="#590f43" stroke-width="4"/>
      </g>
    </g>
  </g>
</svg>
